<svg xmlns="http://www.w3.org/2000/svg" width="21" height="15" viewBox="0 0 21 15"><g><g><path fill="#4d4d4d" d="M7.836 12.071c-.62.576-1.426 1.06-2.288 1.116-1.841.121-3.695-1.559-4.113-3.289-.288-1.193-.375-4.07 1.45-4.019.463.014 1.085.23 1.591.455a12.7 12.7 0 0 1 2.03 1.155c.687.474 1.338 1.016 1.882 1.652.196.23.374.483.503.757.016.034.035.082.054.139.007.043.019.084.035.124l.008.033.008.032.003.04c.002.039.002.077 0 .116-.042.17-.108.336-.192.496a.579.579 0 0 0-.098.173c-.234.382-.558.728-.873 1.02m11.719-2.69c-.207 1.781-1.757 3.472-3.544 3.775-.989.168-1.969-.258-2.719-.884-.413-.345-.85-.784-1.134-1.275a2.302 2.302 0 0 1-.256-.615c.006.034.008-.19-.002-.125.004-.029.01-.058.017-.087a.594.594 0 0 0 .04-.14c.011-.031.022-.062.034-.091a3.84 3.84 0 0 1 .404-.656c.426-.547.966-1.023 1.515-1.443 1.104-.845 2.467-1.704 3.863-1.938.606-.102 1.24.173 1.535.851.35.802.345 1.775.247 2.628m.15-4.263L17.855.483c-.131-.33-.436-.555-.806-.457-.313.082-.588.477-.457.806l1.491 3.74c-.602.001-1.206.176-1.761.395-.898.353-1.748.816-2.543 1.36-.854.583-1.688 1.249-2.336 2.06-.223.281-.43.582-.583.9-.264.036-.529.037-.793.004-.465-1.03-1.523-1.902-2.328-2.518a13.42 13.42 0 0 0-2.465-1.508c-.729-.34-1.511-.65-2.324-.694-.045-.002-.088-.001-.132-.002L4.31.832C4.441.5 4.165.115 3.852.026c-.372-.107-.676.13-.807.457L1.193 5.127C.063 6.107-.125 8.163.065 9.615c.306 2.338 2.326 4.5 4.691 4.838 1.341.193 2.598-.312 3.637-1.138.49-.39.982-.884 1.35-1.44.285-.064.57-.1.87-.086.19.009.379.065.567.11.287.427.643.813 1.002 1.14.851.774 1.89 1.34 3.046 1.449 2.395.227 4.751-1.816 5.438-4.01.487-1.556.445-4.214-.961-5.36"/></g></g></svg>