<svg xmlns="http://www.w3.org/2000/svg" width="13" height="14" viewBox="0 0 13 14"><g><g><path fill="#fff" d="M9.788 8.954c-.04-.068-.148-.108-.31-.19-.162-.08-.957-.471-1.105-.525-.148-.054-.256-.081-.365.08a9.5 9.5 0 0 1-.512.635c-.094.108-.189.121-.35.04-.162-.081-.683-.251-1.3-.803a4.869 4.869 0 0 1-.9-1.12c-.095-.162-.01-.25.07-.33.073-.073.162-.189.243-.284.082-.093.109-.16.163-.27.054-.107.027-.202-.013-.283-.041-.08-.365-.876-.499-1.2-.132-.315-.265-.273-.364-.278l-.31-.005a.593.593 0 0 0-.431.202c-.148.162-.566.553-.566 1.35 0 .796.58 1.565.66 1.672.08.108 1.14 1.742 2.762 2.442.386.167.688.267.922.341.388.123.74.106 1.02.064.31-.046.956-.391 1.091-.769s.135-.702.094-.77zM1.554 12.46l.544-1.985c-.596-.949-.95-1.855-.95-3.066A5.388 5.388 0 0 1 6.53 2.03a5.378 5.378 0 0 1 5.378 5.384 5.39 5.39 0 0 1-5.383 5.38c-1.151 0-2.022-.325-2.934-.866zm1.878.638a6.476 6.476 0 0 0 3.096.788c3.567 0 6.47-2.903 6.472-6.472 0-1.73-.672-3.356-1.894-4.58A6.431 6.431 0 0 0 6.528.939 6.482 6.482 0 0 0 .055 7.409c0 1.142.297 2.254.864 3.236L0 14z"/></g></g></svg>