<svg xmlns="http://www.w3.org/2000/svg" width="13" height="13" viewBox="0 0 13 13"><g><g><g><path fill="#fff" d="M6.5.684a5.79 5.79 0 0 1 4.424 2.053H9.237a.342.342 0 1 0 0 .684h2.736a.343.343 0 0 0 .343-.342V1.026a.343.343 0 0 0-.685 0v1.495A6.474 6.474 0 0 0 6.501 0 6.507 6.507 0 0 0 0 6.5a.342.342 0 1 0 .684 0A5.822 5.822 0 0 1 6.5.684z"/></g><g><path fill="#fff" d="M12.657 6.158a.341.341 0 0 0-.341.342A5.822 5.822 0 0 1 6.5 12.315a5.79 5.79 0 0 1-4.425-2.052h1.688a.342.342 0 1 0 0-.685H1.026a.341.341 0 0 0-.341.342v2.053a.342.342 0 1 0 .683 0v-1.495A6.474 6.474 0 0 0 6.5 12.999c3.584 0 6.5-2.916 6.5-6.5a.342.342 0 0 0-.343-.341z"/></g></g></g></svg>