<svg xmlns="http://www.w3.org/2000/svg" width="14" height="13" viewBox="0 0 14 13"><g><g><g><path fill="#fff" d="M6.75 12.315A5.822 5.822 0 0 1 .935 6.499 5.822 5.822 0 0 1 6.75.684a5.822 5.822 0 0 1 5.815 5.815 5.822 5.822 0 0 1-5.815 5.816zM6.75 0a6.507 6.507 0 0 0-6.5 6.5c0 3.583 2.916 6.499 6.5 6.499 3.583 0 6.5-2.916 6.5-6.5S10.333 0 6.75 0z"/></g><g><path fill="#fff" d="M6.75 3.42c-.943 0-1.71.768-1.71 1.711v.684a.342.342 0 1 0 .684 0v-.684a1.027 1.027 0 0 1 2.053 0v.684a.343.343 0 0 1-.343.342c-.566 0-1.026.46-1.026 1.027a.342.342 0 1 0 .684 0c0-.19.153-.343.342-.343.566 0 1.027-.46 1.027-1.026v-.684c0-.943-.768-1.71-1.71-1.71z"/></g><g><path fill="#fff" d="M6.99 8.993a.357.357 0 0 0-.482 0 .397.397 0 0 0-.072.112.294.294 0 0 0-.028.13c0 .024.004.045.008.069a.19.19 0 0 0 .02.061c.007.021.017.041.03.062.01.017.028.034.042.051a.36.36 0 0 0 .372.076.4.4 0 0 0 .11-.076.34.34 0 0 0 .103-.243.341.341 0 0 0-.028-.13.343.343 0 0 0-.075-.112z"/></g></g></g></svg>