<svg xmlns="http://www.w3.org/2000/svg" width="16" height="16" viewBox="0 0 16 16"><g><g><g><path fill="#fff" d="M15.158 9.51l-1.807-1.808a.42.42 0 0 0-.297-.123h-2.106V5.474c0-1.161-.945-2.106-2.105-2.106H6.737V2.105c0-.697.567-1.263 1.263-1.263h5.895c.698 0 1.263.566 1.263 1.263zm-5.052 1.858c0 .697-.567 1.264-1.263 1.264H2.948a.424.424 0 0 0-.298.123L.843 14.563v-9.09c0-.696.567-1.263 1.262-1.263h6.738c.696 0 1.263.567 1.263 1.264zM13.895 0H8C6.84 0 5.895.944 5.895 2.105v1.263h-3.79C.945 3.368 0 4.313 0 5.474v10.105a.422.422 0 0 0 .72.298l2.402-2.403h5.72c1.161 0 2.106-.945 2.106-2.106V8.421h1.931l2.402 2.403a.426.426 0 0 0 .46.091.42.42 0 0 0 .26-.389v-8.42C16 .943 15.055 0 13.894 0z"/></g><g><path fill="#fff" d="M7.818 6.754H2.996a.402.402 0 1 0 0 .804h4.822a.402.402 0 1 0 0-.804z"/></g><g><path fill="#fff" d="M7.818 9.287H2.996a.402.402 0 1 0 0 .803h4.822a.402.402 0 1 0 0-.803z"/></g></g></g></svg>
