<svg xmlns="http://www.w3.org/2000/svg" width="13" height="12" viewBox="0 0 13 12"><g><g><path fill="#fff" d="M12.316 9.148h-1.403A1.713 1.713 0 0 0 9.237 7.78c-.386 0-.74.133-1.027.35V4.36h2.938l1.168 1.168zm-3.08 1.368c-.565 0-1.026-.46-1.026-1.026a1.028 1.028 0 0 1 2.053 0c0 .566-.46 1.026-1.026 1.026zm-6.157 0a1.028 1.028 0 0 1 0-2.052c.566 0 1.026.46 1.026 1.026 0 .566-.46 1.026-1.026 1.026zM.685 8.122V2.648c0-.566.46-1.026 1.026-1.026H6.5c.565 0 1.025.46 1.025 1.026v6.5H4.755A1.713 1.713 0 0 0 3.079 7.78c-.808 0-1.484.565-1.662 1.32a1.024 1.024 0 0 1-.732-.978zM12.9 5.143l-1.368-1.368a.342.342 0 0 0-.242-.1H8.21V2.647c0-.943-.767-1.71-1.71-1.71H1.71C.769.937 0 1.704 0 2.647v5.474C0 8.959.605 9.654 1.4 9.8c.147.795.843 1.4 1.68 1.4.825 0 1.516-.59 1.675-1.369H7.56c.16.78.85 1.369 1.676 1.369s1.517-.59 1.676-1.369h1.745A.342.342 0 0 0 13 9.49V5.385a.34.34 0 0 0-.1-.242z"/></g></g></svg>