<svg xmlns="http://www.w3.org/2000/svg" width="12" height="13" viewBox="0 0 12 13"><g><g><path fill="#fff" d="M1.192 8.417a.135.135 0 0 1-.023.028h-.58a.105.105 0 0 1-.025-.028V5.904a.218.218 0 0 1 .044-.073h.54a.218.218 0 0 1 .044.073zm9.766-2.513v2.513a.134.134 0 0 1-.023.028h-.579a.104.104 0 0 1-.025-.028V5.904a.218.218 0 0 1 .043-.073h.54a.218.218 0 0 1 .044.073zm.563-.043l.001-.1A5.767 5.767 0 0 0 5.762 0a5.767 5.767 0 0 0-5.76 5.85.437.437 0 0 0-.002.044v2.54c0 .266.253.575.58.575h.596c.326 0 .58-.309.58-.574v-2.54c0-.253-.244-.628-.58-.628H.589C.84 2.627 3.105.564 5.762.564s4.922 2.063 5.172 4.703h-.588c-.336 0-.58.375-.58.627v2.54c0 .266.254.575.58.575h.12c-.02 1.21-.182 1.895-.541 2.286-.358.391-.992.567-2.117.586-.112-.27-.397-.55-.774-.55H6.48a.836.836 0 0 0-.835.834c0 .386.365.835.835.835h.553a.833.833 0 0 0 .786-.555c1.312-.024 2.043-.247 2.52-.768.58-.633.677-1.658.692-2.676.29-.05.49-.333.49-.566v-2.54-.029zM7.303 12.19a.272.272 0 0 1-.27.247h-.552c-.14 0-.27-.17-.27-.27 0-.15.12-.271.27-.271h.553c.134 0 .254.151.269.252a.258.258 0 0 0 0 .042"/></g></g></svg>