<svg xmlns="http://www.w3.org/2000/svg" width="24" height="25" viewBox="0 0 24 25" fill="none">
<path d="M3 12.6543C3 14.4343 3.52784 16.1744 4.51677 17.6544C5.50571 19.1345 6.91131 20.288 8.55585 20.9692C10.2004 21.6504 12.01 21.8286 13.7558 21.4814C15.5016 21.1341 17.1053 20.2769 18.364 19.0183C19.6226 17.7596 20.4798 16.1559 20.8271 14.4101C21.1743 12.6643 20.9961 10.8547 20.3149 9.21015C19.6337 7.56561 18.4802 6.16 17.0001 5.17107C15.5201 4.18214 13.78 3.6543 12 3.6543C9.48395 3.66376 7.06897 4.64552 5.26 6.3943L3 8.6543M3 8.6543V3.6543M3 8.6543H8" stroke="black" stroke-width="2" stroke-linecap="round" stroke-linejoin="round"/>
</svg>