<svg width="39" height="14" viewBox="0 0 39 14" fill="none" xmlns="http://www.w3.org/2000/svg">
<g id="Icon" clip-path="url(#clip0_712_128)">
<path id="Vector" d="M38.3486 9.47705C38.3402 9.50244 38.3296 9.52148 38.3169 9.53418C38.3042 9.54688 38.2852 9.55322 38.2598 9.55322C38.2598 9.55322 38.2576 9.55322 38.2534 9.55322C38.2492 9.55322 38.2471 9.55322 38.2471 9.55322H37.041C37.041 9.55322 37.0389 9.55322 37.0347 9.55322C37.0304 9.55322 37.0283 9.55322 37.0283 9.55322C36.9945 9.55322 36.9606 9.54264 36.9268 9.52148C36.8929 9.50033 36.8675 9.47705 36.8506 9.45166V9.43896L35.8096 7.83936L34.8701 9.41357C34.8532 9.44743 34.8278 9.47705 34.7939 9.50244C34.7601 9.52783 34.722 9.54476 34.6797 9.55322H33.5625C33.554 9.55322 33.5498 9.55322 33.5498 9.55322C33.5159 9.55322 33.4906 9.54476 33.4736 9.52783C33.4567 9.51091 33.4482 9.48975 33.4482 9.46436C33.4482 9.44743 33.4504 9.43473 33.4546 9.42627C33.4588 9.41781 33.4609 9.41357 33.4609 9.41357L35.0986 6.77295L33.4482 4.25928C33.4398 4.25081 33.4355 4.24447 33.4355 4.24023C33.4355 4.236 33.4313 4.22966 33.4229 4.22119C33.4313 4.18734 33.4461 4.16195 33.4673 4.14502C33.4884 4.12809 33.5117 4.11963 33.5371 4.11963H34.7559C34.7982 4.12809 34.8363 4.14502 34.8701 4.17041C34.904 4.1958 34.9294 4.22542 34.9463 4.25928L35.9111 5.73193L36.8506 4.25928C36.8675 4.22542 36.8929 4.1958 36.9268 4.17041C36.9606 4.14502 36.9987 4.12809 37.041 4.11963H38.1582C38.1836 4.11963 38.2069 4.12809 38.228 4.14502C38.2492 4.16195 38.264 4.18734 38.2725 4.22119C38.264 4.22966 38.2598 4.236 38.2598 4.24023C38.2598 4.24447 38.2555 4.25081 38.2471 4.25928L36.6094 6.78564L38.3232 9.41357C38.3317 9.42204 38.3381 9.43262 38.3423 9.44531C38.3465 9.45801 38.3486 9.46859 38.3486 9.47705ZM32.5469 9.52783C32.3353 9.55322 32.111 9.57438 31.874 9.59131C31.637 9.60824 31.3958 9.6167 31.1504 9.6167C31.125 9.6167 31.1017 9.6167 31.0806 9.6167C31.0594 9.6167 31.0404 9.6167 31.0234 9.6167C30.541 9.6167 30.1157 9.52148 29.7476 9.33105C29.3794 9.14062 29.1953 8.7111 29.1953 8.04248V5.61768C29.1953 4.94906 29.3794 4.52165 29.7476 4.33545C30.1157 4.14925 30.5452 4.05615 31.0361 4.05615C31.0531 4.05615 31.0721 4.05615 31.0933 4.05615C31.1144 4.05615 31.1377 4.05615 31.1631 4.05615C31.4085 4.05615 31.6519 4.06462 31.8931 4.08154C32.1343 4.09847 32.3691 4.12386 32.5977 4.15771L32.5469 4.14502C32.5553 4.14502 32.5596 4.14502 32.5596 4.14502C32.6019 4.14502 32.6357 4.15983 32.6611 4.18945C32.6865 4.21908 32.6992 4.25081 32.6992 4.28467C32.6992 4.28467 32.6992 4.28678 32.6992 4.29102C32.6992 4.29525 32.6992 4.29736 32.6992 4.29736V4.98291C32.6992 5.01676 32.6844 5.0485 32.6548 5.07812C32.6252 5.10775 32.5892 5.12256 32.5469 5.12256H30.96C30.7822 5.12256 30.6574 5.15853 30.5854 5.23047C30.5135 5.30241 30.4775 5.43148 30.4775 5.61768V6.29053H32.4834C32.4834 6.29053 32.4876 6.29053 32.4961 6.29053C32.5299 6.29053 32.5617 6.30322 32.5913 6.32861C32.6209 6.354 32.6357 6.38786 32.6357 6.43018V7.12842C32.6357 7.17074 32.6209 7.20459 32.5913 7.22998C32.5617 7.25537 32.5299 7.26807 32.4961 7.26807C32.4876 7.26807 32.4834 7.26807 32.4834 7.26807H30.4775V8.04248C30.4775 8.23714 30.5135 8.37044 30.5854 8.44238C30.6574 8.51432 30.7822 8.55029 30.96 8.55029H32.5469C32.5892 8.55029 32.6252 8.56299 32.6548 8.58838C32.6844 8.61377 32.6992 8.64762 32.6992 8.68994V9.37549C32.6992 9.41781 32.6865 9.45378 32.6611 9.4834C32.6357 9.51302 32.6019 9.52783 32.5596 9.52783C32.5596 9.52783 32.5575 9.52783 32.5532 9.52783C32.549 9.52783 32.5469 9.52783 32.5469 9.52783ZM28.4336 5.14795H27.1514V9.41357C27.1429 9.44743 27.126 9.47917 27.1006 9.50879C27.0752 9.53841 27.0413 9.55322 26.999 9.55322H26.0088C25.9665 9.55322 25.9305 9.53841 25.9009 9.50879C25.8713 9.47917 25.8564 9.4432 25.8564 9.40088V5.14795H24.5615C24.5192 5.14795 24.4854 5.13525 24.46 5.10986C24.4346 5.08447 24.4176 5.05485 24.4092 5.021V4.25928C24.4092 4.22542 24.424 4.19368 24.4536 4.16406C24.4832 4.13444 24.5192 4.11963 24.5615 4.11963H28.4336C28.4759 4.11963 28.5119 4.13232 28.5415 4.15771C28.5711 4.18311 28.5859 4.21696 28.5859 4.25928V5.0083C28.5859 5.05062 28.5711 5.08447 28.5415 5.10986C28.5119 5.13525 28.4759 5.14795 28.4336 5.14795ZM22.4541 8.82959C22.3779 9.05811 22.2383 9.24642 22.0352 9.39453C21.832 9.54264 21.6035 9.6167 21.3496 9.6167C21.3411 9.6167 21.3327 9.6167 21.3242 9.6167C21.3158 9.6167 21.3031 9.6167 21.2861 9.6167H21.2988C21.2819 9.6167 21.2671 9.6167 21.2544 9.6167C21.2417 9.6167 21.2269 9.6167 21.21 9.6167C20.9561 9.6167 20.7318 9.54264 20.5371 9.39453C20.3424 9.24642 20.207 9.05811 20.1309 8.82959V8.81689C20.1309 8.80843 20.0589 8.56722 19.915 8.09326C19.7712 7.6193 19.6146 7.0988 19.4453 6.53174C19.276 5.96468 19.1237 5.4484 18.9883 4.98291C18.8444 4.50895 18.7725 4.27197 18.7725 4.27197C18.7725 4.27197 18.7725 4.26986 18.7725 4.26562C18.7725 4.26139 18.7725 4.25505 18.7725 4.24658C18.7725 4.21273 18.783 4.18522 18.8042 4.16406C18.8254 4.1429 18.8529 4.13232 18.8867 4.13232H19.9658C19.9997 4.13232 20.0251 4.14079 20.042 4.15771C20.0589 4.17464 20.0716 4.1958 20.0801 4.22119L21.1846 8.15674C21.1846 8.19059 21.193 8.21598 21.21 8.23291C21.2269 8.24984 21.2523 8.2583 21.2861 8.2583C21.32 8.2583 21.3433 8.25195 21.356 8.23926C21.3687 8.22656 21.3792 8.19906 21.3877 8.15674L22.4922 4.22119C22.4922 4.1958 22.5028 4.17464 22.5239 4.15771C22.5451 4.14079 22.5726 4.13232 22.6064 4.13232H23.6729C23.6813 4.13232 23.6877 4.13232 23.6919 4.13232C23.6961 4.13232 23.6982 4.13232 23.6982 4.13232C23.7236 4.14079 23.7448 4.1556 23.7617 4.17676C23.7786 4.19792 23.7871 4.22119 23.7871 4.24658C23.7871 4.24658 23.7871 4.2487 23.7871 4.25293C23.7871 4.25716 23.7871 4.26351 23.7871 4.27197C23.7871 4.27197 23.7194 4.50472 23.584 4.97021C23.4486 5.44417 23.2983 5.96256 23.1333 6.52539C22.9683 7.08822 22.8138 7.61084 22.6699 8.09326C22.5345 8.56722 22.4626 8.81266 22.4541 8.82959ZM11.1172 12.562C11.0072 12.7482 10.8569 12.8984 10.6665 13.0127C10.4761 13.127 10.2708 13.1841 10.0508 13.1841C9.82227 13.1841 9.61279 13.127 9.42236 13.0127C9.23193 12.8984 9.08594 12.7482 8.98438 12.562L7.68945 10.2007L6.67383 12.0669C6.63151 12.1346 6.58285 12.196 6.52783 12.251C6.47282 12.306 6.41146 12.3504 6.34375 12.3843C6.29297 12.4181 6.23584 12.4414 6.17236 12.4541C6.10889 12.4668 6.04329 12.4731 5.97559 12.4731C5.83171 12.4731 5.6984 12.4372 5.57568 12.3652C5.45296 12.2933 5.35775 12.1981 5.29004 12.0796V12.0669L1.51953 5.16064C1.48568 5.10986 1.46029 5.05485 1.44336 4.99561C1.42643 4.93636 1.41797 4.87288 1.41797 4.80518C1.42643 4.59359 1.50472 4.41374 1.65283 4.26562C1.80094 4.11751 1.98079 4.04346 2.19238 4.04346C2.19238 4.04346 2.1945 4.04346 2.19873 4.04346C2.20296 4.04346 2.20508 4.04346 2.20508 4.04346H4.3252L3.15723 1.89795C3.11491 1.82178 3.08105 1.73714 3.05566 1.64404C3.03027 1.55094 3.01758 1.45361 3.01758 1.35205C3.01758 1.03044 3.13184 0.755371 3.36035 0.526855C3.58887 0.29834 3.86393 0.184082 4.18555 0.184082C4.19401 0.184082 4.20247 0.184082 4.21094 0.184082C4.2194 0.184082 4.22363 0.184082 4.22363 0.184082H15.9541C15.9541 0.184082 15.9583 0.184082 15.9668 0.184082C15.9753 0.184082 15.9795 0.184082 15.9795 0.184082C16.3011 0.184082 16.5719 0.296224 16.792 0.520508C17.012 0.744792 17.1221 1.01351 17.1221 1.32666C17.1221 1.41976 17.1115 1.51286 17.0903 1.60596C17.0692 1.69906 17.0332 1.78369 16.9824 1.85986H16.9951L11.1172 12.562ZM10.2412 4.04346H5.17578C5.13346 4.04346 5.09115 4.04769 5.04883 4.05615C5.00651 4.06462 4.96842 4.07731 4.93457 4.09424C4.84993 4.13656 4.78223 4.19792 4.73145 4.27832C4.68066 4.35872 4.65527 4.44548 4.65527 4.53857C4.65527 4.58089 4.66162 4.62321 4.67432 4.66553C4.68701 4.70784 4.70182 4.74593 4.71875 4.77979L7.23242 9.37549C7.25781 9.41781 7.28744 9.45801 7.32129 9.49609C7.35514 9.53418 7.39746 9.56592 7.44824 9.59131C7.4821 9.60824 7.52018 9.62093 7.5625 9.62939C7.60482 9.63786 7.64714 9.64209 7.68945 9.64209C7.79102 9.64209 7.882 9.61882 7.9624 9.57227C8.04281 9.52572 8.10417 9.46012 8.14648 9.37549L10.6855 4.75439C10.7025 4.729 10.7173 4.69515 10.73 4.65283C10.7427 4.61051 10.749 4.5682 10.749 4.52588C10.7406 4.39046 10.6877 4.2762 10.5903 4.18311C10.493 4.09001 10.3766 4.04346 10.2412 4.04346Z" fill="#4F4F4F"/>
</g>
<defs>
<clipPath id="clip0_712_128">
<rect width="38.23" height="13" fill="white" transform="matrix(1 0 0 -1 0.769531 13.1841)"/>
</clipPath>
</defs>
</svg>
