<svg width="21" height="22" viewBox="0 0 21 22" fill="none" xmlns="http://www.w3.org/2000/svg">
<path d="M0.5 22C0.5 22 0.597614 21.1299 0.792842 19.3896C0.988069 17.6494 1.20499 15.7337 1.4436 13.6426C1.68221 11.5514 1.90275 9.63574 2.10521 7.89551C2.30766 6.15527 2.40889 5.28516 2.40889 5.28516C2.40889 5.28516 2.98373 5.28516 4.13341 5.28516C5.28308 5.28516 5.85792 5.28516 5.85792 5.28516C5.85792 5.28516 5.85792 5.17415 5.85792 4.95215C5.85792 4.73014 5.85792 4.61914 5.85792 4.61914C5.85792 3.98893 5.98084 3.39095 6.22668 2.8252C6.47252 2.25944 6.80513 1.76888 7.22451 1.35352C7.64389 0.938151 8.13557 0.608724 8.69957 0.365234C9.26356 0.121745 9.8637 0 10.5 0C11.1363 0 11.7364 0.121745 12.3004 0.365234C12.8644 0.608724 13.3525 0.938151 13.7646 1.35352C14.1768 1.76888 14.5058 2.25944 14.7516 2.8252C14.9975 3.39095 15.1204 3.98893 15.1204 4.61914C15.1204 4.61914 15.1204 4.73014 15.1204 4.95215C15.1204 5.17415 15.1204 5.28516 15.1204 5.28516C15.1204 5.28516 15.6952 5.28516 16.8449 5.28516C17.9946 5.28516 18.5694 5.28516 18.5694 5.28516C18.5694 5.28516 18.6706 6.15527 18.8731 7.89551C19.0756 9.63574 19.2961 11.5514 19.5347 13.6426C19.7733 15.7337 19.9939 17.6494 20.1963 19.3896C20.3988 21.1299 20.5 22 20.5 22C20.5 22 19.4588 22 17.3764 22C15.2939 22 13.0018 22 10.5 22C7.99819 22 5.70607 22 3.62364 22C1.54121 22 0.5 22 0.5 22ZM13.7972 4.61914C13.7972 3.70247 13.4754 2.92188 12.8319 2.27734C12.1884 1.63281 11.4111 1.31055 10.5 1.31055C9.58894 1.31055 8.80803 1.63281 8.15727 2.27734C7.50651 2.92188 7.18113 3.70247 7.18113 4.61914C7.18113 4.61914 7.18113 4.73014 7.18113 4.95215C7.18113 5.17415 7.18113 5.28516 7.18113 5.28516C7.18113 5.28516 7.5282 5.28516 8.22234 5.28516C8.91649 5.28516 9.67571 5.28516 10.5 5.28516C11.3243 5.28516 12.0799 5.28516 12.7668 5.28516C13.4537 5.28516 13.7972 5.28516 13.7972 5.28516C13.7972 5.28516 13.7972 5.17415 13.7972 4.95215C13.7972 4.73014 13.7972 4.61914 13.7972 4.61914ZM17.398 6.5957C17.398 6.5957 17.0184 6.5957 16.2592 6.5957C15.5 6.5957 15.1204 6.5957 15.1204 6.5957C15.1204 6.5957 15.1204 6.75684 15.1204 7.0791C15.1204 7.40137 15.1204 7.5625 15.1204 7.5625C15.1927 7.63411 15.2469 7.72005 15.2831 7.82031C15.3192 7.92057 15.3373 8.02799 15.3373 8.14258C15.3373 8.38607 15.2505 8.59375 15.077 8.76562C14.9035 8.9375 14.701 9.02344 14.4696 9.02344C14.2238 9.02344 14.0141 8.9375 13.8406 8.76562C13.667 8.59375 13.5803 8.38607 13.5803 8.14258C13.5803 8.02799 13.5983 7.92057 13.6345 7.82031C13.6706 7.72005 13.7249 7.63411 13.7972 7.5625C13.7972 7.5625 13.7972 7.40137 13.7972 7.0791C13.7972 6.75684 13.7972 6.5957 13.7972 6.5957C13.7972 6.5957 13.4537 6.5957 12.7668 6.5957C12.0799 6.5957 11.3243 6.5957 10.5 6.5957C9.67571 6.5957 8.91649 6.5957 8.22234 6.5957C7.5282 6.5957 7.18113 6.5957 7.18113 6.5957C7.18113 6.5957 7.18113 6.75684 7.18113 7.0791C7.18113 7.40137 7.18113 7.5625 7.18113 7.5625C7.25343 7.63411 7.31128 7.72005 7.35466 7.82031C7.39805 7.92057 7.41974 8.02799 7.41974 8.14258C7.41974 8.38607 7.33297 8.59375 7.15944 8.76562C6.9859 8.9375 6.77621 9.02344 6.53037 9.02344C6.28453 9.02344 6.07484 8.9375 5.9013 8.76562C5.72777 8.59375 5.641 8.38607 5.641 8.14258C5.641 8.02799 5.66269 7.92057 5.70607 7.82031C5.74946 7.72005 5.80007 7.63411 5.85792 7.5625C5.85792 7.5625 5.85792 7.40137 5.85792 7.0791C5.85792 6.75684 5.85792 6.5957 5.85792 6.5957C5.85792 6.5957 5.47831 6.5957 4.71909 6.5957C3.95987 6.5957 3.58026 6.5957 3.58026 6.5957C3.58026 6.5957 3.49711 7.32975 3.3308 8.79785C3.1645 10.266 2.98012 11.8809 2.77766 13.6426C2.5752 15.4043 2.39082 17.0192 2.22451 18.4873C2.05821 19.9554 1.97505 20.6895 1.97505 20.6895C1.97505 20.6895 2.86081 20.6895 4.63232 20.6895C6.40383 20.6895 8.35611 20.6895 10.4892 20.6895C12.6222 20.6895 14.5745 20.6895 16.346 20.6895C18.1175 20.6895 19.0033 20.6895 19.0033 20.6895C19.0033 20.6895 18.9201 19.9554 18.7538 18.4873C18.5875 17.0192 18.4031 15.4043 18.2007 13.6426C17.9982 11.8809 17.8138 10.266 17.6475 8.79785C17.4812 7.32975 17.398 6.5957 17.398 6.5957Z" fill="black"/>
</svg>