<svg xmlns="http://www.w3.org/2000/svg" width="24" height="25" viewBox="0 0 24 25" fill="none">
  <path d="M14 18.6543V6.6543C14 6.12386 13.7893 5.61516 13.4142 5.24008C13.0391 4.86501 12.5304 4.6543 12 4.6543H4C3.46957 4.6543 2.96086 4.86501 2.58579 5.24008C2.21071 5.61516 2 6.12386 2 6.6543V17.6543C2 17.9195 2.10536 18.1739 2.29289 18.3614C2.48043 18.5489 2.73478 18.6543 3 18.6543H5M5 18.6543C5 19.7589 5.89543 20.6543 7 20.6543C8.10457 20.6543 9 19.7589 9 18.6543M5 18.6543C5 17.5497 5.89543 16.6543 7 16.6543C8.10457 16.6543 9 17.5497 9 18.6543M15 18.6543H9M15 18.6543C15 19.7589 15.8954 20.6543 17 20.6543C18.1046 20.6543 19 19.7589 19 18.6543M15 18.6543C15 17.5497 15.8954 16.6543 17 16.6543C18.1046 16.6543 19 17.5497 19 18.6543M19 18.6543H21C21.2652 18.6543 21.5196 18.5489 21.7071 18.3614C21.8946 18.1739 22 17.9195 22 17.6543V14.0043C21.9996 13.7774 21.922 13.5573 21.78 13.3803L18.3 9.0303C18.2065 8.91318 18.0878 8.81858 17.9528 8.7535C17.8178 8.68841 17.6699 8.65451 17.52 8.6543H14" stroke="black" stroke-width="2" stroke-linecap="round" stroke-linejoin="round"/>
</svg>