<svg xmlns="http://www.w3.org/2000/svg" width="20" height="13" viewBox="0 0 20 13"><g><g><path fill="#4d4d4d" d="M11.065 10.9l.017-.017c.027-.011.11.033.02.02a.27.27 0 0 0-.037-.003zm-1.694.452l-.002-.019.034.034c-.018.108-.028.103-.032-.015zm-.453-.47l.02.02h-.019c-.108.012-.035-.033 0-.02zm5.01-4.325c-1.37 1.219-2.382 2.693-3.129 4.346H9.467l-.255.001-.066-.147a11.501 11.501 0 0 0-1.12-1.999A12.66 12.66 0 0 0 6.12 6.601C4.714 5.334 3.076 4.37 1.39 3.527V1.849l.127.069a18.032 18.032 0 0 0 15.791.578 20.56 20.56 0 0 0 1.305-.646v1.677c-1.668.834-3.286 1.785-4.684 3.03m5.028-6.47c-.866.467-1.724.955-2.633 1.333a16.344 16.344 0 0 1-4.646 1.177A16.644 16.644 0 0 1 2.217.719L1.044.087C.586-.161 0 .147 0 .687v3.269c0 .23.13.494.344.6 1.678.82 3.346 1.734 4.747 2.982.679.605 1.3 1.28 1.812 2.032.258.378.493.772.705 1.179.105.202.177.46.31.642 0 .001.113.166.102.115.055.158.05.313.169.467.363.47 1.212.318 1.734.318.402 0 .812.026 1.214 0 .506-.033.702-.335.887-.767.204-.475.442-.938.707-1.382a10.817 10.817 0 0 1 1.653-2.108c1.505-1.501 3.378-2.552 5.272-3.479.215-.105.344-.369.344-.599V.686c0-.54-.586-.847-1.044-.599"/></g></g></svg>