<svg xmlns="http://www.w3.org/2000/svg" width="18" height="19" viewBox="0 0 18 19" fill="none">
<path fill-rule="evenodd" clip-rule="evenodd" d="M0.591616 0.927068C0.357087 1.16316 0.357087 1.54594 0.591616 1.78203L8.17424 9.41515L0.423944 17.2171C0.189414 17.4531 0.189415 17.8359 0.423944 18.072C0.658473 18.3081 1.03872 18.3081 1.27325 18.072L9.02354 10.2701L16.7254 18.0232C16.9599 18.2593 17.3401 18.2593 17.5747 18.0232C17.8092 17.7871 17.8092 17.4043 17.5747 17.1682L9.87285 9.41515L17.407 1.83084C17.6415 1.59475 17.6415 1.21197 17.407 0.975877C17.1725 0.739786 16.7922 0.739786 16.5577 0.975877L9.02354 8.56019L1.44092 0.927068C1.20639 0.690977 0.826146 0.690977 0.591616 0.927068Z" fill="black"/>
</svg>