<!-- Generated by IcoMoon.io -->
<svg version="1.1" xmlns="http://www.w3.org/2000/svg" width="32" height="32" viewBox="0 0 32 32">
<title>pin</title>
<path style="fill: #222;" d="M26.087 10.087c0-5.571-4.516-10.087-10.087-10.087s-10.087 4.516-10.087 10.087v0c-0 0.028-0.001 0.061-0.001 0.094 0 0.271 0.016 0.539 0.048 0.801l-0.003-0.032c0.041 0.487 0.109 0.929 0.205 1.36l-0.012-0.066c0.908 4.029 2.369 7.59 4.324 10.818l-0.090-0.16c1.085 1.938 5.616 9.098 5.616 9.098s4.531-7.16 5.618-9.098c1.864-3.068 3.324-6.629 4.186-10.417l0.046-0.241c0.083-0.363 0.152-0.805 0.191-1.255l0.003-0.039c0.028-0.23 0.044-0.495 0.044-0.765 0-0.035-0-0.069-0.001-0.104l0 0.005zM16 14.794c-2.6 0-4.707-2.107-4.707-4.707s2.107-4.707 4.707-4.707c2.6 0 4.707 2.107 4.707 4.707v0c0 2.6-2.107 4.707-4.707 4.707v0z"></path>
</svg>
